<svg width="116" height="29" viewBox="0 0 116 29" fill="none" xmlns="http://www.w3.org/2000/svg">
<path d="M13.2656 17.8336L9.21746 20.9244C9.01688 21.0885 8.79807 21.1662 8.56101 21.1574C8.32396 21.1487 8.11426 21.0801 7.93192 20.9517C7.74957 20.8234 7.60843 20.6501 7.5085 20.432C7.40858 20.2139 7.40384 19.9769 7.49428 19.7209L9.05335 14.6607L5.08729 11.8435C4.86848 11.6976 4.73172 11.5061 4.67701 11.2691C4.62231 11.032 4.63143 10.8132 4.70436 10.6126C4.7773 10.412 4.90495 10.2341 5.08729 10.0787C5.26964 9.92335 5.48846 9.84604 5.74375 9.84677H10.6398L12.2262 4.59516C12.3174 4.33987 12.4589 4.14367 12.6507 4.00654C12.8425 3.86942 13.0475 3.80122 13.2656 3.80195C13.4837 3.80268 13.689 3.87124 13.8815 4.00763C14.0741 4.14403 14.2152 4.33987 14.305 4.59516L15.8914 9.84677H20.7874C21.0427 9.84677 21.2615 9.92445 21.4439 10.0798C21.6262 10.2352 21.7539 10.4128 21.8268 10.6126C21.8997 10.8125 21.9088 11.0313 21.8541 11.2691C21.7994 11.5069 21.6627 11.6983 21.4439 11.8435L17.4778 14.6607L19.0369 19.7209C19.128 19.9762 19.1237 20.2132 19.0237 20.432C18.9238 20.6509 18.7823 20.8241 18.5992 20.9517C18.4162 21.0794 18.2065 21.1479 17.9701 21.1574C17.7338 21.1669 17.515 21.0892 17.3137 20.9244L13.2656 17.8336Z" fill="#E0CBAF"/>
<path d="M35.0202 18.8695L30.9721 21.9603C30.7715 22.1244 30.5527 22.2021 30.3157 22.1933C30.0786 22.1846 29.8689 22.116 29.6866 21.9876C29.5042 21.8592 29.3631 21.686 29.2631 21.4679C29.1632 21.2498 29.1585 21.0128 29.2489 20.7568L30.808 15.6966L26.8419 12.8794C26.6231 12.7335 26.4864 12.542 26.4317 12.305C26.3769 12.0679 26.3861 11.8491 26.459 11.6485C26.5319 11.4479 26.6596 11.27 26.8419 11.1146C27.0243 10.9592 27.2431 10.8819 27.4984 10.8827H32.3944L33.9808 5.63105C34.072 5.37576 34.2135 5.17955 34.4053 5.04243C34.5972 4.9053 34.8021 4.83711 35.0202 4.83784C35.2383 4.83856 35.4436 4.90713 35.6362 5.04352C35.8287 5.17992 35.9699 5.37576 36.0596 5.63105L37.646 10.8827H42.5421C42.7973 10.8827 43.0162 10.9603 43.1985 11.1157C43.3808 11.2711 43.5085 11.4487 43.5814 11.6485C43.6544 11.8484 43.6635 12.0672 43.6088 12.305C43.5541 12.5427 43.4173 12.7342 43.1985 12.8794L39.2324 15.6966L40.7915 20.7568C40.8827 21.0121 40.8783 21.2491 40.7784 21.4679C40.6785 21.6867 40.537 21.86 40.3539 21.9876C40.1708 22.1153 39.9611 22.1838 39.7248 22.1933C39.4885 22.2028 39.2696 22.1251 39.0683 21.9603L35.0202 18.8695Z" fill="#E0CBAF"/>
<path d="M57.0744 18.8695L53.0263 21.9603C52.8257 22.1244 52.6069 22.2021 52.3699 22.1933C52.1328 22.1846 51.9231 22.116 51.7408 21.9876C51.5584 21.8592 51.4173 21.686 51.3173 21.4679C51.2174 21.2498 51.2127 21.0128 51.3031 20.7568L52.8622 15.6966L48.8961 12.8794C48.6773 12.7335 48.5406 12.542 48.4859 12.305C48.4311 12.0679 48.4403 11.8491 48.5132 11.6485C48.5861 11.4479 48.7138 11.27 48.8961 11.1146C49.0785 10.9592 49.2973 10.8819 49.5526 10.8827H54.4486L56.035 5.63105C56.1262 5.37576 56.2677 5.17955 56.4595 5.04243C56.6514 4.9053 56.8563 4.83711 57.0744 4.83784C57.2925 4.83856 57.4978 4.90713 57.6904 5.04352C57.8829 5.17992 58.0241 5.37576 58.1138 5.63105L59.7002 10.8827H64.5963C64.8515 10.8827 65.0704 10.9603 65.2527 11.1157C65.435 11.2711 65.5627 11.4487 65.6356 11.6485C65.7086 11.8484 65.7177 12.0672 65.663 12.305C65.6083 12.5427 65.4715 12.7342 65.2527 12.8794L61.2866 15.6966L62.8457 20.7568C62.9369 21.0121 62.9325 21.2491 62.8326 21.4679C62.7327 21.6867 62.5912 21.86 62.4081 21.9876C62.225 22.1153 62.0153 22.1838 61.779 22.1933C61.5427 22.2028 61.3238 22.1251 61.1225 21.9603L57.0744 18.8695Z" fill="#E0CBAF"/>
<path d="M79.1284 18.8695L75.0803 21.9603C74.8797 22.1244 74.6609 22.2021 74.4238 22.1933C74.1868 22.1846 73.9771 22.116 73.7947 21.9876C73.6124 21.8592 73.4712 21.686 73.3713 21.4679C73.2714 21.2498 73.2666 21.0128 73.3571 20.7568L74.9161 15.6966L70.9501 12.8794C70.7313 12.7335 70.5945 12.542 70.5398 12.305C70.4851 12.0679 70.4942 11.8491 70.5672 11.6485C70.6401 11.4479 70.7677 11.27 70.9501 11.1146C71.1324 10.9592 71.3513 10.8819 71.6065 10.8827H76.5026L78.089 5.63105C78.1802 5.37576 78.3217 5.17955 78.5135 5.04243C78.7053 4.9053 78.9103 4.83711 79.1284 4.83784C79.3465 4.83856 79.5518 4.90713 79.7443 5.04352C79.9369 5.17992 80.078 5.37576 80.1678 5.63105L81.7542 10.8827H86.6502C86.9055 10.8827 87.1243 10.9603 87.3067 11.1157C87.489 11.2711 87.6166 11.4487 87.6896 11.6485C87.7625 11.8484 87.7716 12.0672 87.7169 12.305C87.6622 12.5427 87.5255 12.7342 87.3067 12.8794L83.3406 15.6966L84.8997 20.7568C84.9908 21.0121 84.9865 21.2491 84.8865 21.4679C84.7866 21.6867 84.6451 21.86 84.462 21.9876C84.279 22.1153 84.0693 22.1838 83.8329 22.1933C83.5966 22.2028 83.3778 22.1251 83.1765 21.9603L79.1284 18.8695Z" fill="#E0CBAF"/>
<path d="M102.047 19.9054L97.9992 22.9962C97.7986 23.1603 97.5798 23.2379 97.3428 23.2292C97.1057 23.2204 96.896 23.1519 96.7137 23.0235C96.5313 22.8951 96.3902 22.7219 96.2902 22.5038C96.1903 22.2857 96.1856 22.0487 96.276 21.7927L97.8351 16.7325L93.869 13.9152C93.6502 13.7694 93.5135 13.5779 93.4588 13.3409C93.404 13.1038 93.4132 12.885 93.4861 12.6844C93.559 12.4838 93.6867 12.3058 93.869 12.1505C94.0514 11.9951 94.2702 11.9178 94.5255 11.9185H99.4215L101.008 6.66694C101.099 6.41165 101.241 6.21544 101.432 6.07832C101.624 5.94119 101.829 5.87299 102.047 5.87372C102.265 5.87445 102.471 5.94302 102.663 6.07941C102.856 6.21581 102.997 6.41165 103.087 6.66694L104.673 11.9185H109.569C109.824 11.9185 110.043 11.9962 110.226 12.1516C110.408 12.3069 110.536 12.4845 110.609 12.6844C110.681 12.8843 110.691 13.1031 110.636 13.3409C110.581 13.5786 110.444 13.7701 110.226 13.9152L106.26 16.7325L107.819 21.7927C107.91 22.0479 107.905 22.285 107.805 22.5038C107.706 22.7226 107.564 22.8959 107.381 23.0235C107.198 23.1511 106.988 23.2197 106.752 23.2292C106.516 23.2387 106.297 23.161 106.095 22.9962L102.047 19.9054Z" fill="#E0CBAF"/>
</svg>
